<?xml version="1.0" encoding="UTF-8"?>
<svg version="1.1" xmlns="http://www.w3.org/2000/svg" width="1024" height="1024">
<path d="M0 0 C1.31314682 -0.00705963 2.62629364 -0.01411926 3.97923279 -0.02139282 C8.19970246 -0.04093958 12.42011431 -0.04608521 16.640625 -0.046875 C17.35990299 -0.04716957 18.07918098 -0.04746414 18.82025528 -0.04776764 C40.31556838 -0.0491905 61.56639756 0.15136694 82.890625 3.203125 C83.6036377 3.30258423 84.31665039 3.40204346 85.05126953 3.5045166 C136.49110975 10.6858371 185.45206129 25.05137528 232.890625 46.203125 C233.78507324 46.59999512 234.67952148 46.99686523 235.60107422 47.40576172 C249.18225982 53.47908559 262.03255283 60.73954473 274.890625 68.203125 C276.49606627 69.12765189 278.1015333 70.05213404 279.70703125 70.9765625 C287.9748373 75.7621866 296.03733394 80.75569895 303.890625 86.203125 C304.51372559 86.63318848 305.13682617 87.06325195 305.77880859 87.50634766 C320.83369904 97.91837798 335.4429863 108.84402302 349.28710938 120.82617188 C350.94968831 122.25384319 352.62884245 123.6597684 354.3125 125.0625 C362.4461377 131.87337401 370.00771972 139.11195829 377.41943359 146.69921875 C380.68535477 150.03776412 384.00688832 153.31860318 387.34375 156.5859375 C393.92071048 163.05171624 400.22029256 169.49972539 405.93359375 176.75 C407.75647379 179.0349674 409.66031761 181.17971699 411.640625 183.328125 C417.25958621 189.58382734 422.2443256 196.35050117 427.28857422 203.0703125 C428.73402936 204.994649 430.18859511 206.91171912 431.64453125 208.828125 C449.62310801 232.70388852 464.44184031 258.56855804 477.890625 285.203125 C478.36000488 286.13108887 478.82938477 287.05905273 479.31298828 288.01513672 C503.54487919 336.30068046 518.70988943 388.97721148 526.203125 442.390625 C526.35031982 443.43710205 526.49751465 444.4835791 526.64916992 445.56176758 C527.11333033 449.1042159 527.51715861 452.65023356 527.890625 456.203125 C527.97676056 457.00679504 528.06289612 457.81046509 528.15164185 458.63848877 C529.91657383 475.62042852 530.25467092 492.54766627 530.20868301 509.60852051 C530.20303927 511.73543371 530.20022107 513.86233894 530.19760132 515.98925781 C530.16138501 536.21291642 529.76011954 556.15055491 526.890625 576.203125 C526.64119141 578.08161133 526.64119141 578.08161133 526.38671875 579.99804688 C514.94064559 665.50445264 482.25297533 746.78704859 421.890625 828.203125 C421.06957275 829.23397217 421.06957275 829.23397217 420.23193359 830.28564453 C414.30649475 837.72511702 408.29542773 845.04341224 401.859375 852.05078125 C400.03359179 854.04682599 398.27112435 856.08288166 396.515625 858.140625 C391.91654081 863.42742272 386.87536637 868.28455276 381.890625 873.203125 C379.077322 876.0026373 376.2842065 878.82023546 373.5078125 881.65625 C367.04203376 888.23321048 360.59402461 894.53279256 353.34375 900.24609375 C351.0587826 902.06897379 348.91403301 903.97281761 346.765625 905.953125 C340.50992266 911.57208621 333.74324883 916.5568256 327.0234375 921.60107422 C325.099101 923.04652936 323.18203088 924.50109511 321.265625 925.95703125 C297.38986148 943.93560801 271.52519196 958.75434031 244.890625 972.203125 C243.96266113 972.67250488 243.03469727 973.14188477 242.07861328 973.62548828 C173.52021563 1008.03122308 96.89274008 1024.73586673 20.40399933 1024.52118301 C18.35614442 1024.51552981 16.30829784 1024.51271747 14.26043701 1024.51010132 C-6.00843906 1024.47248142 -26.00009663 1023.97644207 -46.109375 1021.203125 C-47.38022949 1021.03683594 -48.65108398 1020.87054687 -49.96044922 1020.69921875 C-102.2779648 1013.72785332 -153.5013317 999.11368654 -201.109375 976.203125 C-202.16688965 975.69555664 -203.2244043 975.18798828 -204.31396484 974.66503906 C-243.52829408 955.72407023 -280.68556664 932.18752304 -313.5703125 903.53173828 C-315.20406169 902.12138563 -316.85735824 900.73689086 -318.515625 899.35546875 C-326.65574951 892.54192487 -334.22182234 885.29904916 -341.63818359 877.70703125 C-344.90410477 874.36848588 -348.22563832 871.08764682 -351.5625 867.8203125 C-358.13946048 861.35453376 -364.43904256 854.90652461 -370.15234375 847.65625 C-371.97522379 845.3712826 -373.87906761 843.22653301 -375.859375 841.078125 C-381.47833621 834.82242266 -386.4630756 828.05574883 -391.50732422 821.3359375 C-392.95277936 819.411601 -394.40734511 817.49453088 -395.86328125 815.578125 C-413.84185801 791.70236148 -428.66059031 765.83769196 -442.109375 739.203125 C-442.81344482 737.8111792 -442.81344482 737.8111792 -443.53173828 736.39111328 C-478.32866877 667.05320171 -494.63456182 590.03995836 -494.421875 512.765625 C-494.41965233 511.33719896 -494.41747582 509.90877285 -494.41534424 508.48034668 C-494.3728565 487.92752254 -494.07595284 467.58359346 -491.109375 447.203125 C-491.0075592 446.49764526 -490.90574341 445.79216553 -490.80084229 445.06530762 C-483.31718516 393.55609631 -469.39118616 344.74600123 -448.109375 297.203125 C-447.71395508 296.31302734 -447.31853516 295.42292969 -446.91113281 294.50585938 C-440.83628963 280.91922864 -433.57163983 268.06829372 -426.109375 255.203125 C-425.20801565 253.63299483 -424.30695235 252.06269465 -423.40625 250.4921875 C-418.00955576 241.1386843 -412.25563305 232.08159251 -406.109375 223.203125 C-405.71282715 222.63029785 -405.3162793 222.0574707 -404.90771484 221.46728516 C-394.70426536 206.81157323 -383.81743903 192.68628261 -372.109375 179.203125 C-371.15804687 178.10097656 -371.15804687 178.10097656 -370.1875 176.9765625 C-368.50663039 175.04124933 -366.81117344 173.1200492 -365.109375 171.203125 C-364.42488281 170.42582031 -363.74039063 169.64851562 -363.03515625 168.84765625 C-357.6077896 162.73831683 -351.92979476 156.93681665 -346.109375 151.203125 C-343.29596502 148.40373533 -340.50290808 145.5860478 -337.7265625 142.75 C-331.27825458 136.19079597 -324.85057322 129.91266879 -317.6171875 124.21875 C-315.1894086 122.26745107 -312.93972497 120.21164239 -310.671875 118.078125 C-281.0303368 91.11844026 -244.68566026 70.16691623 -209.109375 52.203125 C-207.7174292 51.49905518 -207.7174292 51.49905518 -206.29736328 50.78076172 C-143.51312136 19.27276195 -70.44710605 0.25244786 0 0 Z " fill="#E5EFFB" transform="translate(494.109375,-0.203125)"/>
<path d="M0 0 C1.3850726 -0.00576172 1.3850726 -0.00576172 2.79812646 -0.01163983 C4.3299008 -0.01034011 4.3299008 -0.01034011 5.89262009 -0.00901413 C7.51204533 -0.01347081 7.51204533 -0.01347081 9.16418624 -0.01801753 C12.80615481 -0.02673569 16.44809062 -0.02821541 20.09006882 -0.02970505 C22.69143367 -0.03433103 25.29279785 -0.03935539 27.89416122 -0.04475021 C34.97892873 -0.0583452 42.06369059 -0.06436024 49.14846897 -0.06876087 C53.57111926 -0.07152167 57.99376736 -0.07575876 62.41641617 -0.08026505 C74.65780246 -0.09245989 86.89918699 -0.10275835 99.14057922 -0.10614014 C99.92441659 -0.1063597 100.70825396 -0.10657927 101.51584397 -0.10680549 C102.30157623 -0.10702377 103.08730849 -0.10724204 103.89685082 -0.10746694 C105.48908885 -0.1079104 107.08132688 -0.10835697 108.67356491 -0.10880661 C109.46337296 -0.10902804 110.25318101 -0.10924947 111.06692263 -0.10947761 C123.86325753 -0.11342519 136.65953547 -0.13087703 149.45584837 -0.15416613 C162.58894705 -0.17787549 175.72201715 -0.19034182 188.85513759 -0.19150805 C196.2307538 -0.19242512 203.60629584 -0.19818522 210.98189163 -0.21632767 C217.91917692 -0.23333155 224.85631915 -0.23498434 231.79361916 -0.22618866 C234.3421701 -0.22541601 236.89072848 -0.22979084 239.43926048 -0.23964691 C242.9141989 -0.25229918 246.38863288 -0.24652578 249.86356735 -0.23606491 C250.87582736 -0.24412132 251.88808737 -0.25217772 252.93102193 -0.26047826 C258.99621762 -0.21767664 263.63889392 0.33733117 268.27659225 4.66658401 C272.32406072 9.95942739 272.78150431 12.97565826 272.78977585 19.52156448 C272.79485657 20.39015594 272.79993729 21.25874741 272.80517197 22.15365982 C272.81589135 24.04540745 272.82450535 25.93716789 272.8312912 27.82893372 C272.84307931 30.83169784 272.8625366 33.83431808 272.88441086 36.83702469 C272.94599695 45.37684134 272.99988598 53.91664673 273.03342819 62.45662308 C273.05449108 67.67862194 273.08989716 72.90036406 273.13418579 78.12221527 C273.14826612 80.10510208 273.15705005 82.08803439 273.16024017 84.07096863 C273.19018656 100.91778662 274.2260829 116.50210865 286.382061 129.44392776 C296.1553016 138.54572435 307.70226198 143.22291334 320.98923874 143.28914261 C322.07315399 143.29676369 322.07315399 143.29676369 323.17896652 143.30453873 C324.74163685 143.31520369 326.30432209 143.32383891 327.86701393 143.33065796 C330.3433059 143.34249747 332.81942741 143.36196184 335.29565048 143.38377762 C342.33391763 143.44523287 349.3721644 143.49944266 356.41062546 143.53279495 C360.72186265 143.55377006 365.03278352 143.58909055 369.34383965 143.63355255 C370.98279277 143.64768409 372.62180179 143.65642855 374.26081276 143.65960693 C376.55604053 143.66453034 378.85043177 143.68772217 381.14548874 143.71492386 C382.44945099 143.72301071 383.75341324 143.73109756 385.0968895 143.73942947 C389.56449962 144.23482143 392.97070739 145.58056797 396.27659225 148.66658401 C399.69810392 153.14086849 400.75681148 155.15612709 400.76348877 160.74875641 C400.76732991 161.95080979 400.77117106 163.15286316 400.7751286 164.3913424 C400.77434827 165.7372604 400.77346946 167.08317834 400.7725029 168.42909622 C400.7750851 169.84960313 400.77809786 171.2701093 400.7815063 172.69061446 C400.78959668 176.60805868 400.791367 180.5254846 400.79210377 184.44293618 C400.79395081 188.6625558 400.8014964 192.88216584 400.80823898 197.10177994 C400.82183764 206.33523966 400.8278495 215.56869505 400.83224964 224.80216312 C400.83500967 230.56489085 400.8392466 236.32761689 400.84375381 242.09034348 C400.85594885 258.03758133 400.86624746 273.98481783 400.86962891 289.93206024 C400.86984847 290.95330651 400.87006804 291.97455278 400.87029426 293.0267459 C400.87051254 294.050474 400.87073081 295.0742021 400.87095571 296.12895226 C400.87139918 298.2035079 400.87184574 300.27806354 400.87229538 302.35261917 C400.87251681 303.3816764 400.87273824 304.41073363 400.87296638 305.47097442 C400.87691479 322.14721905 400.89436906 338.82342001 400.9176549 355.49964777 C400.94135509 372.61038957 400.95383016 389.72110944 400.95499682 406.83186793 C400.95591438 416.44313099 400.96168672 426.05433715 400.97981644 435.66558456 C400.99519951 443.84975192 401.00034854 452.0338448 400.99207833 460.21802387 C400.98816535 464.39493682 400.98913287 468.5716997 401.00313568 472.74859428 C401.015836 476.57189017 401.01471135 480.39492262 401.00254497 484.21821794 C401.00058122 485.60183833 401.00369761 486.98547714 401.01238933 488.36907163 C401.0234554 490.24959546 401.01421846 492.13020594 401.0039978 494.01073456 C401.00459489 495.0554002 401.00519198 496.10006585 401.00580716 497.17638803 C400.40144822 501.9547775 398.459256 505.96389833 394.632061 508.94392776 C390.29431029 512.10687099 387.38800108 512.25776053 382.14205074 512.26564884 C381.47685593 512.26800107 380.81166112 512.2703533 380.12630889 512.27277681 C377.88148051 512.27947141 375.63670994 512.27900845 373.39187241 512.27859879 C371.77251195 512.28189711 370.15315232 512.28562261 368.53379375 512.28974026 C364.07133573 512.29977171 359.60889116 512.30347889 355.14642346 512.30612957 C350.33853973 512.31002916 345.53066668 512.31960764 340.72278976 512.32834244 C329.10656107 512.34811523 317.49033149 512.35817348 305.87409016 512.36707023 C300.40723677 512.37145125 294.94038435 512.37681849 289.47353172 512.3820591 C271.30703272 512.39907116 253.14053433 512.41356661 234.97402859 512.42080784 C230.25855827 512.42271781 225.54308795 512.42463813 220.82761765 512.42659378 C219.06955579 512.42731939 219.06955579 512.42731939 217.27597753 512.42805966 C198.27830354 512.43636473 179.28069243 512.4617098 160.28304591 512.49417446 C140.79020678 512.52721455 121.29739964 512.54525378 101.80453235 512.54845208 C90.85522966 512.55061986 79.90601869 512.55940779 68.95674324 512.58491325 C59.63439885 512.60657849 50.31216844 512.61469125 40.98980173 512.60494647 C36.23159735 512.60038981 31.47362837 512.60236711 26.71545601 512.62170792 C22.36108173 512.63925493 18.00711606 512.63841114 13.65273795 512.62281062 C12.07601036 512.62042164 10.49925509 512.62482456 8.92256995 512.63663927 C6.78107941 512.65169461 4.64104866 512.64213207 2.49959469 512.62641239 C1.30965851 512.6273892 0.11972233 512.62836601 -1.10627252 512.62937242 C-6.20551833 511.8508924 -9.28441446 509.33209009 -12.680439 505.56892776 C-15.69414741 501.21579339 -15.51191457 497.23713692 -15.50216007 492.14214993 C-15.5045123 491.31487124 -15.50686453 490.48759255 -15.50928804 489.63524482 C-15.51599099 486.83905286 -15.51551943 484.04290724 -15.51511002 481.24670792 C-15.51840782 479.2313668 -15.52213321 477.21602635 -15.52625149 475.20068675 C-15.53628886 469.6436779 -15.53999107 464.08667984 -15.54264081 458.52966321 C-15.54653864 452.54385551 -15.55611724 446.5580564 -15.56485367 440.57225418 C-15.5836965 426.79213559 -15.59387565 413.01201635 -15.60231435 399.23188854 C-15.60651948 392.42450074 -15.61174161 385.61711383 -15.61699888 378.80972678 C-15.63488867 355.51410596 -15.64988582 332.2184849 -15.65731907 308.92285824 C-15.65779383 307.46018433 -15.65826972 305.99751043 -15.65874673 304.53483652 C-15.65898311 303.80947273 -15.65921948 303.08410894 -15.65946302 302.33676444 C-15.66066424 298.66162942 -15.66187968 294.98649441 -15.66310501 291.31135941 C-15.66334516 290.58201454 -15.66358531 289.85266968 -15.66383274 289.10122345 C-15.67172842 265.44580247 -15.69516598 241.79043159 -15.72766095 218.13503249 C-15.76194221 193.13370745 -15.78166857 168.13241174 -15.78496331 143.13106281 C-15.78538086 140.38766752 -15.78586043 137.64427226 -15.78638649 134.900877 C-15.78650968 134.22536045 -15.78663287 133.54984391 -15.7867598 132.85385716 C-15.78909382 121.97334359 -15.8047649 111.09288813 -15.82522834 100.21239529 C-15.84546257 89.28053845 -15.85064101 78.34874207 -15.8414577 67.41686853 C-15.83689819 61.49212822 -15.83889496 55.56757697 -15.85821915 49.64286232 C-15.87574564 44.2226709 -15.87493902 38.80280792 -15.85932186 33.38261352 C-15.85692974 31.41827169 -15.8613516 29.45390775 -15.87315051 27.48959991 C-15.88816643 24.82540644 -15.87866879 22.1623923 -15.86292362 19.49822903 C-15.87314583 18.73032373 -15.88336804 17.96241843 -15.89390001 17.17124328 C-15.82704851 12.0109486 -14.60806948 9.11353957 -11.367939 5.13142776 C-7.47159644 1.69893551 -5.16738145 0.00804141 0 0 Z " fill="#FEFEFE" transform="translate(383.3679389953613,207.86857223510742)"/>
<path d="M0 0 C1.19666745 -0.00523668 2.39333489 -0.01047336 3.62626499 -0.01586872 C6.93555174 -0.02825015 10.24462569 -0.03171295 13.55392087 -0.03127182 C17.12807907 -0.03292438 20.70219898 -0.04599922 24.27633667 -0.0574646 C32.08652992 -0.08028131 39.89669594 -0.08823186 47.706918 -0.09329104 C52.58846963 -0.09655243 57.47001341 -0.10307763 62.35156059 -0.11029243 C75.88074393 -0.12985528 89.40991999 -0.14626092 102.93911839 -0.14916897 C104.23693337 -0.14945032 104.23693337 -0.14945032 105.56096685 -0.14973736 C107.31478846 -0.1501036 109.06861008 -0.1504673 110.82243169 -0.15082847 C111.69297244 -0.15101128 112.56351319 -0.1511941 113.46043396 -0.15138245 C114.33204385 -0.151563 115.20365373 -0.15174354 116.10167604 -0.15192956 C130.21473547 -0.15546879 144.32764209 -0.18247679 158.44064856 -0.21988034 C172.94804513 -0.25801974 187.455366 -0.27732686 201.96281379 -0.27762848 C210.10101361 -0.27821184 218.23903119 -0.28662503 226.37718391 -0.31562614 C233.30904184 -0.34021572 240.24065109 -0.34737223 247.17254091 -0.33237862 C250.70454573 -0.32524003 254.23606025 -0.3259333 257.76800919 -0.34878922 C278.3410745 -0.47399612 294.15560644 0.55755245 309.59104919 15.46165466 C313.58107732 19.58998532 317.18774631 23.97489993 320.77464294 28.45384216 C323.12706477 31.318005 325.57941529 34.04901247 328.09104919 36.77415466 C332.18456011 41.22142578 336.01547418 45.82132929 339.80979919 50.52415466 C342.15823888 53.35515045 344.60014822 56.06799064 347.09104919 58.77415466 C351.18456011 63.22142578 355.01547418 67.82132929 358.80979919 72.52415466 C361.15823888 75.35515045 363.60014822 78.06799064 366.09104919 80.77415466 C370.18456011 85.22142578 374.01547418 89.82132929 377.80979919 94.52415466 C380.95299177 98.31320873 384.29263514 101.90684818 387.62620544 105.52806091 C390.01812217 108.19290633 392.28359803 110.92247291 394.52854919 113.71165466 C397.75056719 117.70650238 401.09855515 121.51872623 404.59104919 125.27415466 C419.80249889 141.70072016 429.75018039 155.67560105 429.59898376 178.66999817 C429.60360001 180.20878329 429.60995776 181.747564 429.61789274 183.28633559 C429.63451041 187.48929336 429.62637436 191.69188539 429.61394787 195.89484406 C429.60486839 200.43757031 429.61888154 204.98023528 429.62986755 209.52294922 C429.64762736 218.41261963 429.64382386 227.30215473 429.63221699 236.19183038 C429.62317181 243.41972889 429.62196337 250.64758955 429.62631226 257.8754921 C429.62692519 258.90545805 429.62753812 259.93542401 429.62816963 260.99660105 C429.62944857 263.08919068 429.63074543 265.1817803 429.63205999 267.27436991 C429.64345865 286.8842049 429.63036388 306.49396502 429.60885853 326.10378774 C429.59099353 342.91419495 429.59408812 359.72449164 429.61253357 376.53489685 C429.63396207 396.07297828 429.64235448 415.6109941 429.63008451 435.14908564 C429.62881037 437.23445232 429.62755289 439.319819 429.62631226 441.4051857 C429.62569515 442.43112471 429.62507805 443.45706371 429.62444225 444.51409178 C429.62099489 451.72867812 429.62680455 458.94322271 429.63623047 466.15780258 C429.64747407 474.9567927 429.64436107 483.75564017 429.62310749 492.55461405 C429.61262799 497.04032105 429.60842201 501.5257906 429.6217041 506.01149559 C429.63369878 510.12477576 429.62695009 514.23760034 429.60579389 518.35083969 C429.60135752 519.83188532 429.60352667 521.31297013 429.61329705 522.79399018 C429.69532146 536.27043798 427.40959496 547.47822779 419.09104919 558.27415466 C418.47229919 559.16102966 417.85354919 560.04790466 417.21604919 560.96165466 C409.54452887 569.31007384 398.34003168 575.49258988 386.95773315 576.45442581 C384.6709664 576.51791852 382.39227259 576.52191908 380.10472107 576.50120544 C379.24523865 576.5014975 378.38575623 576.50178955 377.50022888 576.50209045 C374.68664613 576.50070786 371.87333513 576.48519751 369.05979919 576.46946716 C367.09825281 576.46573322 365.13670456 576.46288805 363.17515564 576.46089172 C358.03280921 576.45328528 352.89057722 576.43366264 347.74827576 576.41148376 C342.49275765 576.39096075 337.2372209 576.38187624 331.98167419 576.37181091 C321.68474914 576.35041378 311.38790872 576.31631416 301.09104919 576.27415466 C301.10104195 577.24895782 301.10104195 577.24895782 301.11123657 578.24345398 C301.17803171 585.05767325 301.22303178 591.87179826 301.25584412 598.68626404 C301.27085396 601.2234119 301.29126816 603.76053415 301.31736755 606.29759216 C301.35409524 609.96171929 301.37085427 613.6255009 301.38401794 617.28977966 C301.3995018 618.40902832 301.41498566 619.52827698 301.43093872 620.68144226 C301.43398836 635.21968541 297.5377599 647.71180247 287.59104919 658.52415466 C274.84902151 670.59352629 259.87866741 672.57901124 243.01112366 672.53485107 C241.37364827 672.5378743 239.73617429 672.54176464 238.09870279 672.54644364 C233.61382441 672.55671027 229.1290261 672.55454522 224.6441412 672.55026305 C219.80149922 672.54779341 214.95887639 672.55681293 210.11624146 672.56430054 C200.63477565 672.57704284 191.15333817 672.57884182 181.67186524 672.57650027 C173.96431397 672.57471647 166.25677129 672.5764681 158.54922104 672.58072472 C156.90308646 672.5816175 156.90308646 672.5816175 155.22369664 672.58252832 C152.99420449 672.58374008 150.76471234 672.58495422 148.53522019 672.5861707 C127.63214478 672.59704438 106.72908551 672.59488452 85.8260092 672.58878585 C66.70924025 672.58361658 47.59252226 672.59487271 28.4757634 672.61388407 C8.83919504 672.63326244 -10.7973492 672.64151848 -30.43392718 672.63776082 C-41.45537723 672.63584881 -52.47678392 672.63833637 -63.49822617 672.65247536 C-72.88066099 672.66439008 -82.26302575 672.66579297 -91.64546154 672.65368519 C-96.43061203 672.64779725 -101.21563435 672.64669481 -106.00077629 672.65868759 C-110.38534353 672.66954857 -114.76967561 672.66644045 -119.15423186 672.65242591 C-120.73624757 672.64977959 -122.31828172 672.65214347 -123.90027933 672.66016177 C-140.82133328 672.73993976 -153.13469822 669.38356872 -165.61598206 657.65696716 C-175.14171646 647.75799274 -179.07131936 635.53595497 -179.04037857 621.99027824 C-179.0424312 621.15543636 -179.04448384 620.32059447 -179.04659867 619.46045434 C-179.05227318 616.65052681 -179.05081086 613.84064821 -179.0493927 611.03071594 C-179.05197608 609.00071313 -179.05498916 606.97071083 -179.0583961 604.94070923 C-179.06647259 599.3522643 -179.06825604 593.76383221 -179.06899357 588.17538214 C-179.070843 582.1520233 -179.07838979 576.12867114 -179.08512878 570.10531616 C-179.09942603 556.24251185 -179.10523931 542.37970932 -179.10982073 528.51689945 C-179.11215702 521.66553277 -179.11575971 514.81416693 -179.11951611 507.96280091 C-179.13235148 484.50712743 -179.14307058 461.05145442 -179.14651871 437.59577751 C-179.14674034 436.12346483 -179.14696212 434.65115214 -179.14718406 433.17883945 C-179.1474047 431.70298207 -179.14762518 430.22712469 -179.14784551 428.75126731 C-179.14828806 425.79047195 -179.14873517 422.82967659 -179.14918518 419.86888123 C-179.14929457 419.13477656 -179.14940396 418.40067189 -179.14951667 417.64432163 C-179.15314696 393.84321836 -179.16906602 370.04214555 -179.19237554 346.24105394 C-179.21697802 321.07370873 -179.23069174 295.90638092 -179.23188663 270.73902333 C-179.23205808 267.97562925 -179.23227351 265.21223517 -179.23252106 262.44884109 C-179.23257683 261.76842206 -179.23263259 261.08800303 -179.23269005 260.38696524 C-179.23384015 249.44247307 -179.24485864 238.49801218 -179.25940811 227.55353057 C-179.27378281 216.55014358 -179.27675234 205.54679138 -179.26896814 194.54339676 C-179.26505927 188.58362572 -179.26600292 182.62395986 -179.28002548 176.66420174 C-179.29274992 171.20625011 -179.29157954 165.74848285 -179.27943477 160.29053153 C-179.27747526 158.31808742 -179.2805679 156.34563031 -179.28927913 154.37320445 C-179.35984531 137.31253731 -177.49795316 123.06334794 -165.34645081 110.02415466 C-154.86158764 100.10774793 -143.07992709 95.91658582 -128.90089417 96.04710388 C-127.62608185 96.0466658 -127.62608185 96.0466658 -126.32551575 96.04621887 C-123.54983376 96.0475989 -120.77442895 96.06309678 -117.99879456 96.07884216 C-116.06109768 96.08257702 -114.12339891 96.08542176 -112.18569946 96.0874176 C-107.1107706 96.09501681 -102.03595806 96.11463307 -96.96107483 96.13682556 C-91.7724922 96.15736434 -86.58389059 96.16643643 -81.39527893 96.17649841 C-71.23311874 96.19788274 -61.07104448 96.23197342 -50.90895081 96.27415466 C-50.91783325 95.58670166 -50.9267157 94.89924866 -50.93586731 94.19096375 C-51.01655628 87.66081447 -51.07718765 81.13080758 -51.11619949 74.60026932 C-51.13693192 71.24403069 -51.16719266 67.88852128 -51.21070862 64.53245544 C-51.25963864 60.65978808 -51.28201451 56.7877015 -51.29957581 52.91477966 C-51.32022095 51.72990967 -51.34086609 50.54503967 -51.36213684 49.32426453 C-51.36531835 37.31662004 -48.1320595 27.82602518 -40.90895081 18.27415466 C-39.98082581 16.94384216 -39.98082581 16.94384216 -39.03395081 15.58665466 C-28.4863358 4.10836775 -15.10725906 -0.03275164 0 0 Z M-16.22145081 38.89915466 C-19.15966809 43.03442343 -19.05160911 46.20536814 -19.04037857 51.14038467 C-19.0424312 51.96650952 -19.04448384 52.79263436 -19.04659867 53.64379328 C-19.05230187 56.44208348 -19.05080736 59.24032497 -19.0493927 62.03862 C-19.05197444 64.05309791 -19.05498706 66.06757531 -19.0583961 68.08205199 C-19.06649188 73.64132176 -19.0682571 79.20057864 -19.06899357 84.7598536 C-19.07083966 90.7463594 -19.07838474 96.73285844 -19.08512878 102.71936035 C-19.0994407 116.50401904 -19.10524108 130.28867595 -19.10982073 144.07334025 C-19.11215512 150.88248537 -19.1157576 157.69162964 -19.11951611 164.50077409 C-19.13235306 187.80071267 -19.14307209 211.10065077 -19.14651871 234.4005928 C-19.14674034 235.86380724 -19.14696213 237.32702167 -19.14718406 238.7902361 C-19.1474047 240.2570246 -19.14762518 241.72381309 -19.14784551 243.19060159 C-19.14828806 246.13332892 -19.14873518 249.07605624 -19.14918518 252.01878357 C-19.14929457 252.74841132 -19.14940396 253.47803907 -19.14951667 254.22977675 C-19.15314789 277.89187091 -19.16906965 301.55393444 -19.19237554 325.21601686 C-19.21696012 350.22196269 -19.23069091 375.22789102 -19.23188663 400.23384929 C-19.23205808 402.97782183 -19.23227351 405.72179437 -19.23252106 408.46576691 C-19.23257683 409.14142995 -19.23263259 409.817093 -19.23269005 410.51323068 C-19.23384171 421.39657642 -19.24487348 432.2798908 -19.25940811 443.16322594 C-19.27375986 454.09855997 -19.27676466 465.03385901 -19.26896814 475.9692007 C-19.26505095 481.89592731 -19.26604316 487.82254814 -19.28002548 493.74926186 C-19.29270052 499.17129726 -19.29162344 504.59314672 -19.27943477 510.01518163 C-19.27746663 511.98022409 -19.28060733 513.94527943 -19.28927913 515.91030374 C-19.3002984 518.57528379 -19.29293568 521.23959909 -19.2808876 523.90456009 C-19.2884828 524.67275123 -19.29607799 525.44094238 -19.30390334 526.23241204 C-19.2504598 531.68446011 -18.14737683 535.8762479 -14.37379456 539.91868591 C-9.59954164 543.56958521 -7.53469518 544.3993043 -1.54198837 544.40558243 C-0.8779474 544.40763506 -0.21390644 544.4096877 0.47025698 544.41180253 C2.717184 544.41750101 4.96405026 544.41601179 7.21098328 544.41459656 C8.8294805 544.41717857 10.44797708 544.42019127 12.06647277 544.42359996 C16.53119208 544.43169258 20.99589534 544.43346079 25.46062112 544.43419743 C30.26920268 544.43604407 35.07777582 544.44358945 39.88635254 544.45033264 C50.40902751 544.46393277 60.93169869 544.46994336 71.45438099 544.4743433 C78.02115523 544.47710302 84.58792799 544.48133988 91.15470123 544.48584747 C109.32544996 544.49804258 127.4961975 544.50834126 145.66695023 544.51172256 C146.83064183 544.51194213 147.99433344 544.5121617 149.19328843 544.51238792 C150.35981403 544.51260619 151.52633964 544.51282447 152.7282145 544.51304936 C155.0921607 544.51349284 157.4561069 544.5139394 159.8200531 544.51438904 C161.57896321 544.51472118 161.57896321 544.51472118 163.37340686 544.51506004 C182.37759854 544.51900878 201.3817519 544.53646404 220.38592878 544.55974856 C239.88325656 544.58344505 259.3805651 544.59592365 278.87790751 544.59709048 C289.83056013 544.59800823 300.78316281 544.60378552 311.7358017 544.6219101 C321.06181792 544.63728816 330.38776879 544.64244515 339.71379527 544.63417199 C344.47397809 544.63025727 349.23402921 544.63123504 353.99419594 544.64522934 C358.3504029 544.65791915 362.70637855 544.65681424 367.06258497 544.64463863 C368.64001265 544.64267306 370.21745645 544.64579955 371.79486147 544.65448299 C373.93709702 544.66553077 376.0785098 544.65811965 378.2207222 544.64609146 C380.00643957 544.64698709 380.00643957 544.64698709 381.82823205 544.64790082 C386.14503834 544.15342329 389.51242782 542.71403734 392.73558044 539.77415466 C396.31271725 535.18010606 397.21543469 532.27287394 397.22527027 526.53377819 C397.23195704 524.72771155 397.23195704 524.72771155 397.23877889 522.88515872 C397.23868959 521.54218303 397.23849973 520.19920735 397.23822021 518.85623169 C397.24151891 517.43486153 397.24524449 516.01349231 397.24936169 514.59212428 C397.25938895 510.67694163 397.26309964 506.7617743 397.265751 502.84658062 C397.26965183 498.62765864 397.27923023 494.40874882 397.28796387 490.18983459 C397.30773313 479.9974232 397.31779445 469.80501081 397.32669166 459.61258504 C397.33107325 454.8151766 397.33644034 450.01776927 397.34168053 445.22036171 C397.35869223 429.27737374 397.37318752 413.33438646 397.38042927 397.3913908 C397.38233922 393.25343513 397.38425954 389.11547946 397.38621521 384.9775238 C397.38669895 383.94903207 397.38718269 382.92054035 397.38768109 381.8608822 C397.39598562 365.19115353 397.42132993 348.52149652 397.45379589 331.85179915 C397.4868411 314.74554603 397.50487567 297.63932937 397.50807351 280.53304416 C397.51024081 270.92512844 397.51902177 261.31731726 397.54453468 251.7094326 C397.56620693 243.52893536 397.57430923 235.34856806 397.5645679 227.16804536 C397.56001326 222.99310526 397.56197672 218.81843345 397.58132935 214.64352989 C397.59889096 210.82205869 397.59802081 207.00105288 397.58243205 203.17957721 C397.58004529 201.79665652 397.58443475 200.4137042 397.5962607 199.03083201 C397.85154835 189.29605213 397.85154835 189.29605213 393.09104919 181.27415466 C388.08274385 176.75446447 384.69082039 176.14986255 378.04026794 176.11643982 C377.32598129 176.1113591 376.61169464 176.10627838 375.87576294 176.1010437 C374.32398198 176.09034506 372.77218564 176.08172289 371.22038269 176.07492447 C368.75547846 176.06310655 366.29074717 176.04364215 363.82591248 176.02180481 C356.81718304 175.96031614 349.80846847 175.90634161 342.79954529 175.87278748 C338.51004464 175.85170164 334.22085522 175.81628066 329.93153381 175.77202988 C328.30508621 175.75797016 326.67858348 175.74917037 325.05207825 175.74597549 C307.94762789 175.70884944 295.14175634 172.67305048 282.38792419 160.73118591 C273.13471245 150.83276723 269.94072738 138.65037236 269.94920349 125.44822693 C269.94399185 124.13022598 269.94399185 124.13022598 269.93867493 122.78559875 C269.93133816 120.88242789 269.92598173 118.97924858 269.92238426 117.07606697 C269.91520012 114.06210567 269.89952007 111.0483054 269.88104248 108.03439331 C269.82865611 99.46679348 269.78058091 90.89928438 269.76512146 82.33152771 C269.75503811 77.08659082 269.72570925 71.84206327 269.68380165 66.59728813 C269.6714968 64.60106947 269.66636945 62.60479301 269.66860008 60.60853767 C269.67095412 57.81507285 269.64878054 55.02278289 269.62107849 52.22947693 C269.6276799 51.4079866 269.63428131 50.58649628 269.64108276 49.7401123 C269.55517338 44.45703236 268.55568289 41.48447112 265.09104919 37.27415466 C261.00830891 33.58973051 258.07293772 32.15215996 252.60006237 32.13993359 C251.67468959 32.13547574 250.74931681 32.1310179 249.79590243 32.12642497 C248.77763238 32.12660933 247.75936232 32.12679369 246.7102356 32.12698364 C245.62976434 32.12330695 244.54929309 32.11963027 243.43608028 32.11584216 C239.79722077 32.10478439 236.1583898 32.10095795 232.51951599 32.09715271 C229.91800343 32.09088973 227.31649176 32.08424308 224.71498108 32.07723999 C216.89559903 32.05747947 209.0762157 32.04741054 201.25681493 32.0385122 C197.57514802 32.0341292 193.89348256 32.02876247 190.21181679 32.02352333 C177.97468076 32.00651254 165.73754563 31.99201761 153.50039959 31.98477459 C150.32496833 31.98286468 147.14953707 31.98094435 143.97410583 31.97898865 C143.18486329 31.97850491 142.39562074 31.97802117 141.58246175 31.97752277 C128.79263852 31.96921957 116.00290874 31.94387714 103.21312632 31.91140797 C90.08451642 31.87835006 76.95595403 31.86032704 63.82730228 31.85713035 C56.455027 31.85496422 49.08288804 31.84620054 41.71065331 31.82066917 C34.77742926 31.79671365 27.84445451 31.79312851 20.91119766 31.80343056 C18.36425397 31.80392762 15.81729845 31.79755736 13.27039146 31.78387451 C9.7975682 31.76625875 6.32563662 31.77321173 2.85281372 31.78640747 C1.84123583 31.77543822 0.82965794 31.76446898 -0.21257383 31.75316733 C-7.40306618 31.8192851 -11.34360969 33.36214583 -16.22145081 38.89915466 Z " fill="#154E84" transform="translate(386.90895080566406,175.72584533691406)"/>
<path d="M0 0 C0.82934555 -0.00014603 1.6586911 -0.00029205 2.51316833 -0.0004425 C5.2618977 0.00025568 8.01055978 0.00804368 10.75927734 0.01586914 C12.66213952 0.01773366 14.56500217 0.0191574 16.46786499 0.02015686 C21.4820284 0.0239794 26.49616295 0.03380746 31.51031494 0.04486084 C36.62454844 0.0550806 41.73878659 0.0596557 46.85302734 0.06469727 C56.89210254 0.07542994 66.93115629 0.09250323 76.97021484 0.11352539 C76.97119165 0.96805243 76.97216846 1.82257946 76.97317487 2.70300126 C77.03145633 53.35761383 77.10526028 104.01218353 77.19920113 154.66674317 C77.21046919 160.74991517 77.22160766 166.83308739 77.23266602 172.91625977 C77.2348697 174.12730164 77.23707338 175.33834351 77.23934384 176.58608362 C77.27470902 196.1909449 77.29957757 215.79580614 77.32056186 235.40068749 C77.34233011 255.51951173 77.3753903 275.6382946 77.4189164 295.75708365 C77.44541541 308.16982291 77.4631237 320.58251064 77.46956088 332.99527678 C77.4748201 341.50903241 77.49105507 350.02272322 77.5158805 358.5364441 C77.5298771 363.44720848 77.53907316 368.35785685 77.53522301 373.26864243 C77.53180125 377.76959822 77.54224383 382.27030666 77.56345036 386.77121183 C77.56869867 388.3945555 77.56897386 390.01792499 77.56361047 391.64126828 C77.51737313 407.23090441 79.62206123 421.61041538 90.72021484 433.42602539 C99.515599 441.61714652 110.7970539 447.21401388 122.94270039 447.25219059 C123.92452299 447.25766503 124.9063456 447.26313948 125.91792041 447.26877981 C126.98893078 447.26975792 128.05994115 447.27073603 129.16340637 447.27174377 C130.3069896 447.27668175 131.45057284 447.28161973 132.62881011 447.28670734 C136.46892857 447.30209155 140.3090303 447.31044552 144.14916992 447.31884766 C146.89864469 447.32787885 149.64811333 447.3383922 152.39758301 447.34884644 C158.32122413 447.37059301 164.24486751 447.38874414 170.1685276 447.40445137 C178.73313884 447.42716657 187.29772549 447.45530711 195.86231586 447.48477065 C209.75789047 447.53242632 223.65347514 447.575696 237.54907227 447.61621094 C251.0471271 447.65557616 264.545173 447.69700485 278.04321289 447.74121094 C279.29130011 447.74529735 279.29130011 447.74529735 280.56460122 447.74946631 C284.73880404 447.76314596 288.91300672 447.7768662 293.08720934 447.79060662 C327.71485932 447.90453959 362.34252823 448.01135598 396.97021484 448.11352539 C397.04637809 455.40919293 397.09886245 462.70475763 397.13500977 470.00073242 C397.15008147 472.48189119 397.1705423 474.96302339 397.1965332 477.4440918 C397.23298652 481.01365728 397.24995777 484.58287 397.26318359 488.15258789 C397.27866745 489.2590567 397.29415131 490.36552551 397.31010437 491.50552368 C397.31150367 497.93181363 397.00263765 502.78891601 392.47021484 507.75805664 C387.59959241 511.55054651 384.56538534 512.2385962 378.48020458 512.24774647 C377.81500977 512.2500987 377.14981496 512.25245093 376.46446273 512.25487444 C374.21963434 512.26156904 371.97486378 512.26110608 369.73002625 512.26069641 C368.11066579 512.26399474 366.49130616 512.26772024 364.87194759 512.27183789 C360.40948957 512.28186934 355.947045 512.28557651 351.4845773 512.2882272 C346.67669357 512.29212679 341.86882052 512.30170527 337.0609436 512.31044006 C325.44471491 512.33021286 313.82848533 512.3402711 302.212244 512.34916785 C296.74539061 512.35354887 291.27853819 512.35891611 285.81168556 512.36415672 C267.64518656 512.38116879 249.47868817 512.39566423 231.31218243 512.40290546 C226.5967121 512.40481543 221.88124179 512.40673576 217.16577148 512.40869141 C215.40770963 512.40941702 215.40770963 512.40941702 213.61413137 512.41015729 C194.61645738 512.41846236 175.61884627 512.44380743 156.62119975 512.47627208 C137.12836062 512.50931217 117.63555348 512.52735141 98.14268619 512.53054971 C87.1933835 512.53271749 76.24417253 512.54150541 65.29489708 512.56701088 C55.97255269 512.58867612 46.65032228 512.59678888 37.32795557 512.5870441 C32.56975119 512.58248744 27.81178221 512.58446474 23.05360985 512.60380554 C18.69923557 512.62135255 14.3452699 512.62050877 9.99089179 512.60490825 C8.4141642 512.60251927 6.83740893 512.60692219 5.26072379 512.6187369 C3.11923325 512.63379224 0.9792025 512.62422969 -1.16225147 512.60851002 C-2.35218765 512.60948683 -3.54212383 512.61046363 -4.76811868 512.61147004 C-9.86736449 511.83299002 -12.94626062 509.31418771 -16.34228516 505.55102539 C-19.35599357 501.19789102 -19.17376073 497.21923454 -19.16400623 492.12424755 C-19.16635846 491.29696887 -19.16871069 490.46969018 -19.1711342 489.61734244 C-19.17783715 486.82115049 -19.17736559 484.02500487 -19.17695618 481.22880554 C-19.18025398 479.21346443 -19.18397937 477.19812398 -19.18809766 475.18278438 C-19.19813502 469.62577552 -19.20183723 464.06877747 -19.20448697 458.51176083 C-19.20838481 452.52595313 -19.21796341 446.54015403 -19.22669983 440.55435181 C-19.24554266 426.77423321 -19.25572181 412.99411397 -19.26416051 399.21398617 C-19.26836564 392.40659837 -19.27358777 385.59921146 -19.27884504 378.7918244 C-19.29673483 355.49620359 -19.31173198 332.20058252 -19.31916523 308.90495586 C-19.31963999 307.44228196 -19.32011588 305.97960805 -19.32059289 304.51693415 C-19.32082927 303.79157036 -19.32106564 303.06620657 -19.32130918 302.31886206 C-19.3225104 298.64372705 -19.32372584 294.96859204 -19.32495117 291.29345703 C-19.32519132 290.56411217 -19.32543147 289.8347673 -19.3256789 289.08332108 C-19.33357458 265.4279001 -19.35701214 241.77252921 -19.38950712 218.11713011 C-19.42378837 193.11580508 -19.44351473 168.11450936 -19.44680947 143.11316043 C-19.44722702 140.36976515 -19.44770659 137.62636989 -19.44823265 134.88297462 C-19.44835584 134.20745808 -19.44847903 133.53194153 -19.44860596 132.83595479 C-19.45093998 121.95544122 -19.46661106 111.07498576 -19.4870745 100.19449291 C-19.50730873 89.26263608 -19.51248717 78.3308397 -19.50330386 67.39896616 C-19.49874435 61.47422585 -19.50074112 55.54967459 -19.52006531 49.62495995 C-19.53759181 44.20476853 -19.53678518 38.78490554 -19.52116802 33.36471114 C-19.5187759 31.40036932 -19.52319776 29.43600537 -19.53499667 27.47169753 C-19.55001259 24.80750407 -19.54051495 22.14448993 -19.52476978 19.48032665 C-19.53499199 18.71242136 -19.5452142 17.94451606 -19.55574617 17.15334091 C-19.48889467 11.99304622 -18.26991564 9.09563719 -15.02978516 5.11352539 C-9.84539848 0.54632761 -6.75786868 -0.03084779 0 0 Z " fill="#FEFEFE" transform="translate(259.02978515625,303.886474609375)"/>
<path d="M0 0 C1.20849609 -0.09087891 1.20849609 -0.09087891 2.44140625 -0.18359375 C10.59682706 1.50703455 17.85096472 8.94604947 24.3125 13.9375 C31.13718195 19.17538311 37.99561099 24.35597563 44.9375 29.4375 C51.94722475 34.58451109 58.93047964 39.76526845 65.875 45 C66.76960937 45.66708984 67.66421875 46.33417969 68.5859375 47.02148438 C78.11293031 54.23645659 78.11293031 54.23645659 80.1875 59.25 C81.18684952 67.99430833 81.18684952 67.99430833 78.75 72.6875 C75.5668573 76.47285888 72.53156437 79.85532121 67.4375 80.4375 C65.6121875 80.6540625 65.6121875 80.6540625 63.75 80.875 C60.18275933 80.82018231 58.22628341 79.92438514 55.3125 77.8984375 C54.52721924 77.35276123 53.74193848 76.80708496 52.93286133 76.24487305 C48.60646716 73.11129551 44.35565791 69.88632757 40.125 66.625 C38.37928779 65.28465917 36.63319067 63.94481952 34.88671875 62.60546875 C34.06411057 61.97432663 33.24150238 61.34318451 32.39396667 60.69291687 C29.30697494 58.33792559 26.20442801 56.00484847 23.09692383 53.67700195 C22.54916542 53.26654884 22.00140701 52.85609573 21.43704987 52.43320465 C20.10404694 51.43439567 18.77079937 50.43591322 17.4375 49.4375 C17.43511165 50.35448732 17.43272329 51.27147465 17.43026257 52.21624947 C17.37113514 74.52515255 17.2955995 96.8339474 17.20178509 119.14273262 C17.15681317 129.93108265 17.11740169 140.71939956 17.09106445 151.5078125 C17.06809572 160.91062758 17.03471022 170.31333798 16.98879844 179.71607006 C16.96485111 184.69507902 16.94613221 189.67398422 16.93988609 194.65304947 C16.93384211 199.33981943 16.91386698 204.02632383 16.88322449 208.71299553 C16.87443328 210.43266774 16.87072392 212.15237463 16.87249184 213.87206841 C16.87414473 216.22183265 16.85744479 218.57078752 16.83622742 220.92044067 C16.83161845 222.23491747 16.82700949 223.54939426 16.82226086 224.90370369 C16.33622388 229.36766003 14.97832746 232.7482074 11.9375 236.08203125 C6.53029135 240.29233174 2.15856323 241.26612423 -4.5625 240.4375 C-9.8660228 237.73570537 -13.66082298 234.14253105 -15.5625 228.4375 C-15.6669475 226.05377232 -15.70903056 223.66719046 -15.72071838 221.28120422 C-15.72812535 220.1809255 -15.72812535 220.1809255 -15.73568195 219.05841893 C-15.75107233 216.59404266 -15.75942173 214.12969248 -15.76782227 211.6652832 C-15.77739958 209.90131398 -15.78740957 208.13734706 -15.79782104 206.37338257 C-15.82489206 201.57827331 -15.84588974 196.78315418 -15.86582303 191.98801064 C-15.88766903 186.97914593 -15.91506449 181.97031169 -15.94187927 176.96147156 C-15.99182492 167.47365049 -16.03675681 157.98581252 -16.07990164 148.49795836 C-16.12925801 137.69759049 -16.18418207 126.89725319 -16.23958123 116.09691489 C-16.35343002 93.87713841 -16.46026275 71.65733274 -16.5625 49.4375 C-17.07772311 49.83895642 -17.59294622 50.24041285 -18.12378216 50.65403461 C-20.48344463 52.49223454 -22.8436466 54.32974053 -25.20385742 56.16723633 C-26.01429253 56.79873848 -26.82472763 57.43024063 -27.65972137 58.08087921 C-33.34418264 62.50533283 -39.06396644 66.86766407 -44.875 71.125 C-46.0496582 71.99415039 -46.0496582 71.99415039 -47.24804688 72.88085938 C-59.33647323 81.77031286 -59.33647323 81.77031286 -68.5625 80.4375 C-73.87815158 77.77967421 -77.66486008 74.13041975 -79.5625 68.4375 C-80.06952712 64.07374203 -80.02412077 60.49263318 -78.25 56.4375 C-71.72406878 48.21303873 -61.65017082 42.23338877 -53.24023438 36.08618164 C-47.09920064 31.59331056 -41.03771851 27.00553114 -35 22.375 C-28.18899649 17.15932677 -21.32942016 12.0231451 -14.375 7 C-13.61437256 6.45013428 -12.85374512 5.90026855 -12.07006836 5.33374023 C-5.00204789 0.25832172 -5.00204789 0.25832172 0 0 Z " fill="#52ABE2" transform="translate(575.5625,399.5625)"/>
<path d="M0 0 C6.52583998 6.50025374 12.64630411 13.27281695 18.4375 20.4375 C22.29825137 25.211403 26.37437075 29.73388428 30.53125 34.25 C33.72881296 37.81184229 36.71388343 41.52565833 39.71875 45.25 C42.06718968 48.08099578 44.50909902 50.79383598 47 53.5 C51.08982005 57.94326129 54.9184498 62.53775807 58.70703125 67.23828125 C61.84826255 71.02167227 65.17983346 74.6129899 68.54296875 78.19921875 C70.53703735 80.47226674 72.35140056 82.75335729 74.15356445 85.17504883 C74.68826859 85.89227615 75.22297272 86.60950348 75.77388 87.34846497 C76.1784996 87.89347153 76.5831192 88.43847809 77 89 C68.49834928 89.0928245 59.99691155 89.16382753 51.49487877 89.20724869 C47.54669627 89.22809247 43.59886137 89.25635049 39.65087891 89.30175781 C35.83830999 89.34533152 32.02607468 89.36916124 28.21327591 89.37950897 C26.76123429 89.38687981 25.30921021 89.40127356 23.85731125 89.42292023 C21.81772667 89.45210976 19.77950711 89.45594986 17.73974609 89.45410156 C16.00100723 89.46742523 16.00100723 89.46742523 14.22714233 89.48101807 C9.14570236 88.72360975 6.06801249 86.1834733 2.6875 82.4375 C-0.22262007 78.23399323 -0.13846296 74.51036753 -0.11352539 69.59106445 C-0.11367142 68.83960144 -0.11381744 68.08813843 -0.1139679 67.31390381 C-0.11327129 64.83033358 -0.10549067 62.34683837 -0.09765625 59.86328125 C-0.09579118 58.14121034 -0.09436769 56.41913889 -0.09336853 54.69706726 C-0.0895504 50.16460709 -0.07972611 45.63217896 -0.06866455 41.09973145 C-0.05843531 36.47469516 -0.05386766 31.84965371 -0.04882812 27.22460938 C-0.03810323 18.1497255 -0.02103523 9.07486542 0 0 Z " fill="#FDC100" transform="translate(688,231)"/>
</svg>
