<?xml version="1.0" encoding="UTF-8"?>
<svg version="1.1" xmlns="http://www.w3.org/2000/svg" width="220" height="220">
<path d="M0 0 C72.6 0 145.2 0 220 0 C220 72.6 220 145.2 220 220 C147.4 220 74.8 220 0 220 C0 147.4 0 74.8 0 0 Z " fill="#FBFBFB" transform="translate(0,0)"/>
<path d="M0 0 C72.6 0 145.2 0 220 0 C220 34.65 220 69.3 220 105 C218.23710659 101.47421318 216.77974718 97.96654846 215.3125 94.3125 C212.69743193 88.05823022 209.52817288 83.03354932 205 78 C204.525625 77.39929688 204.05125 76.79859375 203.5625 76.1796875 C197.55796075 69.20566535 187.59708225 64.86569408 179 62 C178.04296875 59.2265625 178.04296875 59.2265625 177.1875 55.625 C172.76290167 39.11655548 162.71215213 25.94557859 147.9765625 17.20703125 C137.61288045 11.81205538 128.37103231 9.45031245 116.6875 9.5625 C115.58390137 9.57007324 114.48030273 9.57764648 113.34326172 9.58544922 C105.21948332 9.74972341 98.44850728 10.56139823 91 14 C89.61748047 14.60134766 89.61748047 14.60134766 88.20703125 15.21484375 C78.70635765 19.83787956 70.27624863 27.16299132 64.6875 36.125 C62.40886905 39.28821004 61.4660492 39.91377296 57.55859375 40.63671875 C54.92743327 40.75429792 52.29381474 40.82561513 49.66015625 40.8515625 C44.66531949 41.05412792 41.21234018 42.41289343 37 45 C36.30390625 45.4228125 35.6078125 45.845625 34.890625 46.28125 C27.27622285 51.43385296 22.88090731 58.55526123 20.41796875 67.33203125 C19.94637145 70.34232058 20.17748227 72.96904706 20.4375 76 C20.55527671 79.85718733 20.45077028 81.42938207 18.03125 84.4921875 C16.26717738 86.11279638 14.4836848 87.71246328 12.68359375 89.29296875 C6.36902836 95.66268319 3.25859697 104.45425088 1 113 C0.67 113 0.34 113 0 113 C0 75.71 0 38.42 0 0 Z " fill="#FBFBFB" transform="translate(0,0)"/>
<path d="M0 0 C1.57007813 0.7115625 1.57007813 0.7115625 3.171875 1.4375 C20.55081068 9.92298972 30.36696793 23.17623139 37.1875 41.125 C37.97543135 43.91306477 38.16925769 46.1226193 38 49 C38.86238281 49.10570312 39.72476563 49.21140625 40.61328125 49.3203125 C53.01162393 51.8085612 62.98126175 60.93451375 70.09765625 70.953125 C71.91858519 73.90681865 73.50097784 76.87160593 75 80 C75.433125 80.886875 75.86625 81.77375 76.3125 82.6875 C81.65174117 95.73897841 80.59003964 111.73715234 75.546875 124.69921875 C68.52660941 139.67933094 57.80268276 150.4768739 42.1875 156.375 C35.49546716 158.70354395 29.04377012 159.17422345 22.0234375 159.23828125 C21.17576813 159.246353 20.32809875 159.25442474 19.45474243 159.26274109 C17.67134609 159.27651134 15.88792418 159.28726473 14.10449219 159.29516602 C12.28117144 159.30674524 10.45788611 159.32728952 8.63476562 159.35668945 C5.99325661 159.39924076 3.35274603 159.41551047 0.7109375 159.42578125 C-0.50947739 159.45204338 -0.50947739 159.45204338 -1.75454712 159.47883606 C-5.36503469 159.46495857 -7.56005011 159.31076361 -10.54833984 157.19995117 C-12 155 -12 155 -11.9375 151.375 C-11 148 -11 148 -8 146 C-5.07413881 145.79406831 -2.23567893 145.6989707 0.69140625 145.69140625 C2.45898734 145.66622267 4.22656538 145.64082503 5.99414062 145.61523438 C8.76960283 145.58664152 11.54501154 145.5626192 14.32055664 145.54370117 C29.44257153 145.42055993 41.62511009 144.83338003 53.1640625 133.9609375 C62.70876835 123.84426426 66.53086493 112.68069861 66.3125 98.85546875 C65.40014116 87.5992415 60.44929721 77.93684114 52.25 70.25 C45.90796657 65.03141249 38.64457941 61.95547579 30.8125 59.67578125 C29 59 29 59 27 57 C26.3314173 54.50084372 25.74077555 52.02424781 25.1875 49.5 C22.07320434 36.37379889 16.20209579 24.82877379 4.6875 17.125 C-0.62081126 13.99028695 -6.10631693 11.77670187 -12 10 C-12.60070312 9.80792969 -13.20140625 9.61585937 -13.8203125 9.41796875 C-27.84268707 6.72909047 -41.90170519 9.70741065 -53.79296875 17.44921875 C-54.88544922 18.21685547 -54.88544922 18.21685547 -56 19 C-56.63550781 19.43957031 -57.27101563 19.87914063 -57.92578125 20.33203125 C-62.56515527 23.90157179 -65.35336999 28.31772277 -68.32421875 33.31640625 C-70.06774914 36.10849338 -71.72130775 38.61733701 -74 41 C-76.04296875 41.26953125 -76.04296875 41.26953125 -78.1875 40.8125 C-79.36699219 40.61527344 -79.36699219 40.61527344 -80.5703125 40.4140625 C-81.37210938 40.27742188 -82.17390625 40.14078125 -83 40 C-89.57280772 39.35385958 -94.55635329 40.08057437 -100 44 C-103.73488927 47.49473009 -106.60381892 51.0214226 -108 56 C-107.9750521 58.26022568 -107.79595807 60.48628722 -107.6159668 62.73925781 C-106.85246505 73.48050544 -106.85246505 73.48050544 -110.265625 78 C-113.09036314 80.17519942 -115.99757295 82.08166508 -119 84 C-126.18609743 91.44447396 -127.56797267 100.30202864 -127.47827148 110.13085938 C-127.13437356 120.93212914 -123.07016628 129.02703732 -115.609375 136.80078125 C-109.04839918 142.33046596 -101.07860242 146.08624374 -92.44677734 146.15771484 C-91.55260101 146.16797699 -90.65842468 146.17823914 -89.7371521 146.18881226 C-88.30105087 146.19976425 -88.30105087 146.19976425 -86.8359375 146.2109375 C-84.80728332 146.23898608 -82.77863758 146.26765038 -80.75 146.296875 C-77.55240945 146.33827414 -74.35497994 146.37516405 -71.15722656 146.40136719 C-68.07063417 146.4288499 -64.98475731 146.47469635 -61.8984375 146.5234375 C-60.93698822 146.52669037 -59.97553894 146.52994324 -58.98495483 146.53329468 C-58.09708282 146.54986115 -57.20921082 146.56642761 -56.29443359 146.58349609 C-55.51151947 146.59158295 -54.72860535 146.5996698 -53.92196655 146.60800171 C-52 147 -52 147 -50 150 C-49.45162287 155.26442045 -49.45162287 155.26442045 -51.23773193 157.66026306 C-53.468061 159.35583611 -54.72401894 159.3960251 -57.50878906 159.43579102 C-58.42114319 159.45493057 -59.33349731 159.47407013 -60.27349854 159.49378967 C-61.26090027 159.49712814 -62.248302 159.50046661 -63.265625 159.50390625 C-64.80401031 159.51888405 -64.80401031 159.51888405 -66.37347412 159.53416443 C-68.55232715 159.54937192 -70.73125021 159.55638941 -72.91015625 159.5559082 C-76.196543 159.56239449 -79.4797834 159.61663784 -82.765625 159.67382812 C-98.62169061 159.80189852 -111.41324456 158.042038 -123.7890625 147.1875 C-134.45401758 136.63560098 -141.22334821 123.55350449 -141.375 108.3125 C-141.32561199 97.08062784 -137.83952791 86.98526216 -131 78 C-129.39429986 76.52044325 -127.76867703 75.06224978 -126.125 73.625 C-122.79466352 70.47643619 -122.79466352 70.47643619 -121.56640625 66.19140625 C-121.64810103 64.16484855 -121.76749942 62.13950754 -121.921875 60.1171875 C-122.12929364 51.8411838 -118.30605171 44.24573321 -113.05859375 38.0390625 C-106.98362292 32.02172896 -100.14506316 27.13875575 -91.37890625 26.90234375 C-90.11949219 26.91394531 -88.86007813 26.92554687 -87.5625 26.9375 C-83.76852041 26.82033096 -80.8278309 26.65536613 -77.75 24.21875 C-76.02261062 21.88357546 -74.52025844 19.47383957 -73 17 C-56.42023505 -2.60080672 -23.67373526 -11.90774707 0 0 Z " fill="#070707" transform="translate(141,13)"/>
<path d="M0 0 C1.92327881 1.29508972 1.92327881 1.29508972 3.76464844 3.13354492 C4.46176941 3.81813278 5.15889038 4.50272064 5.87713623 5.20805359 C6.61377502 5.95795059 7.35041382 6.7078476 8.109375 7.48046875 C8.87679016 8.24547195 9.64420532 9.01047516 10.43487549 9.79866028 C12.05461528 11.41937954 13.66814461 13.0463258 15.27587891 14.67895508 C17.73889202 17.17623747 20.22494765 19.64869299 22.71484375 22.11914062 C24.28529119 23.69648723 25.85434941 25.27521846 27.421875 26.85546875 C28.16661072 27.5952446 28.91134644 28.33502045 29.6786499 29.09721375 C30.36316223 29.79756241 31.04767456 30.49791107 31.75292969 31.21948242 C32.35739929 31.8301506 32.9618689 32.44081879 33.58465576 33.06999207 C35.31030478 35.42314136 35.80478145 37.09582484 36 40 C33.875 42.875 33.875 42.875 31 45 C26.15840002 44.87567573 23.97160989 42.43878205 20.69921875 39.08984375 C20.2179805 38.60294571 19.73674225 38.11604767 19.24092102 37.61439514 C17.71342979 36.06460092 16.20047252 34.50145808 14.6875 32.9375 C13.6513209 31.88124806 12.6142209 30.82589867 11.57617188 29.77148438 C9.04003105 27.1913578 6.51673541 24.5990748 4 22 C3.99413376 23.28373001 3.98826752 24.56746002 3.98222351 25.89009094 C3.92508124 37.97123624 3.85236434 50.05220005 3.76428509 62.13316059 C3.71950314 68.34453861 3.6802643 74.55584983 3.65356445 80.76733398 C3.62760955 86.7585678 3.58726272 92.74954567 3.53681374 98.74062157 C3.52009204 101.02959199 3.50861092 103.31860674 3.50238609 105.60762978 C3.49280265 108.8068099 3.46481232 112.00532733 3.43237305 115.2043457 C3.43380814 116.15668594 3.43524323 117.10902618 3.4367218 118.09022522 C3.42418365 118.96100708 3.41164551 119.83178894 3.39872742 120.72895813 C3.39181397 121.86414619 3.39181397 121.86414619 3.38476086 123.02226734 C2.88779194 125.57676745 2.09702711 126.48658608 0 128 C-3.5625 127.875 -3.5625 127.875 -7 127 C-9.05016639 123.92475042 -9.25258963 123.27755808 -9.2784729 119.80488586 C-9.28963638 118.95093231 -9.30079987 118.09697876 -9.31230164 117.21714783 C-9.31446182 116.28350906 -9.31662201 115.3498703 -9.31884766 114.38793945 C-9.32889328 113.40239075 -9.3389389 112.41684204 -9.34928894 111.40142822 C-9.38021863 108.13871859 -9.39718334 104.87609136 -9.4140625 101.61328125 C-9.43276626 99.35311672 -9.45233907 97.09295923 -9.4727478 94.83280945 C-9.52415856 88.87999617 -9.56373643 82.92716022 -9.60089111 76.97424316 C-9.64087472 70.90139112 -9.69199277 64.82863408 -9.7421875 58.75585938 C-9.83905269 46.83730623 -9.92342355 34.91869955 -10 23 C-10.60473145 23.63091553 -11.20946289 24.26183105 -11.83251953 24.91186523 C-14.09234316 27.25714074 -16.36340646 29.5907711 -18.64257812 31.91723633 C-19.62473904 32.92446887 -20.60235684 33.93615306 -21.57519531 34.95239258 C-22.97837509 36.41654898 -24.39737724 37.86366047 -25.8203125 39.30859375 C-27.09285889 40.62041626 -27.09285889 40.62041626 -28.39111328 41.95874023 C-31.3740594 44.29267365 -33.24853752 44.80837387 -37 45 C-39.375 44 -39.375 44 -41 42 C-41.63169081 38.49359461 -41.7412896 36.09057789 -39.68756104 33.06915283 C-37.74886242 30.92082198 -35.7253244 28.91295789 -33.6328125 26.9140625 C-32.50792923 25.80047867 -32.50792923 25.80047867 -31.36032104 24.66439819 C-28.96447621 22.30105458 -26.54514218 19.96342933 -24.125 17.625 C-22.50236596 16.02890815 -20.88125311 14.43126823 -19.26171875 12.83203125 C-16.29938822 9.92000553 -13.3344292 7.0110091 -10.34814453 4.12353516 C-9.74857941 3.54286285 -9.14901428 2.96219055 -8.53128052 2.36392212 C-5.74098897 -0.12140981 -3.66862288 -0.36309219 0 0 Z " fill="#040404" transform="translate(113,84)"/>
<path d="M0 0 C0.33 0.66 0.66 1.32 1 2 C1.66 2 2.32 2 3 2 C3 2.99 3 3.98 3 5 C3.99 5 4.98 5 6 5 C6.33 5.66 6.66 6.32 7 7 C22.84 7.495 22.84 7.495 39 8 C39 8.33 39 8.66 39 9 C34.08876411 9.09898615 29.17811062 9.17152247 24.26611328 9.21972656 C22.59576298 9.23982393 20.92548287 9.26710683 19.25537109 9.30175781 C16.8523628 9.35036119 14.45028566 9.37298656 12.046875 9.390625 C11.30193787 9.41127014 10.55700073 9.43191528 9.78948975 9.45318604 C6.28416285 9.45469804 4.36119126 9.26901446 1.51269531 7.14746094 C-0.31141337 4.55790961 -0.34469315 3.10223835 0 0 Z " fill="#161616" transform="translate(129,163)"/>
<path d="M0 0 C1.65 0.33 3.3 0.66 5 1 C4.66226562 1.71285156 4.32453125 2.42570312 3.9765625 3.16015625 C1.54273046 8.38656437 -0.6300958 13.39584643 -2 19 C-2.33 19 -2.66 19 -3 19 C-3.0814222 16.77144426 -3.13938079 14.54202345 -3.1875 12.3125 C-3.22230469 11.07113281 -3.25710937 9.82976562 -3.29296875 8.55078125 C-2.9846829 4.81435679 -2.18088273 2.99370517 0 0 Z " fill="#F3F3F3" transform="translate(3,94)"/>
<path d="M0 0 C0.33 1.32 0.66 2.64 1 4 C0.34 4 -0.32 4 -1 4 C-2.80230168 7.82989106 -3.19622241 10.78121808 -3 15 C-3.99 15 -4.98 15 -6 15 C-7 14 -7 14 -7.5 10.875 C-6.80548867 5.49253721 -4.02889242 3.38139185 0 0 Z " fill="#0E0E0E" transform="translate(79,112)"/>
<path d="M0 0 C1.7149101 3.4298202 2.94130926 6.62001507 4.125 10.25 C4.47820313 11.32765625 4.83140625 12.4053125 5.1953125 13.515625 C5.46085938 14.33546875 5.72640625 15.1553125 6 16 C5.38125 15.814375 4.7625 15.62875 4.125 15.4375 C1.95839822 14.76313824 1.95839822 14.76313824 0 16 C0 10.72 0 5.44 0 0 Z " fill="#EEEEEE" transform="translate(0,129)"/>
<path d="M0 0 C0.66 0.33 1.32 0.66 2 1 C-2.11378556 8.5273523 -2.11378556 8.5273523 -5.8125 10.5 C-6.534375 10.665 -7.25625 10.83 -8 11 C-8 8 -8 8 -6.25 5.95703125 C-5.5075 5.24933594 -4.765 4.54164062 -4 3.8125 C-2.88625 2.73935547 -2.88625 2.73935547 -1.75 1.64453125 C-1.1725 1.10183594 -0.595 0.55914063 0 0 Z " fill="#0E0E0E" transform="translate(76,22)"/>
<path d="M0 0 C1.12894876 0.93274109 2.25300876 1.87140122 3.375 2.8125 C4.00148438 3.33457031 4.62796875 3.85664062 5.2734375 4.39453125 C7 6 7 6 9 9 C4.67008153 9 3.08622163 6.88494631 0 4 C-0.33 3.01 -0.66 2.02 -1 1 C-0.67 0.67 -0.34 0.34 0 0 Z " fill="#DFDFDF" transform="translate(123,112)"/>
<path d="M0 0 C3 2 3 2 3.6875 4.125 C3.790625 4.74375 3.89375 5.3625 4 6 C3.01 6.66 2.02 7.32 1 8 C0.01 7.01 -0.98 6.02 -2 5 C-1.34 3.35 -0.68 1.7 0 0 Z " fill="#F5F5F5" transform="translate(27,145)"/>
<path d="M0 0 C0.33 1.32 0.66 2.64 1 4 C0.34 4 -0.32 4 -1 4 C-1.33 4.99 -1.66 5.98 -2 7 C-4.5625 8.1875 -4.5625 8.1875 -7 9 C-5.44499019 5.18315774 -2.96404505 2.80804268 0 0 Z " fill="#1D1D1D" transform="translate(79,112)"/>
<path d="M0 0 C0.66 0 1.32 0 2 0 C2 0.99 2 1.98 2 3 C0.02 3.99 0.02 3.99 -2 5 C-2 2 -2 2 0 0 Z M-5 4 C-4.34 4.33 -3.68 4.66 -3 5 C-3.99 5.99 -4.98 6.98 -6 8 C-6.66 7.67 -7.32 7.34 -8 7 C-7.01 6.01 -6.02 5.02 -5 4 Z " fill="#E3E3E3" transform="translate(29,90)"/>
<path d="M0 0 C0.66 0.33 1.32 0.66 2 1 C2 1.99 2 2.98 2 4 C-3.14285714 8 -3.14285714 8 -7 8 C-4.69 5.36 -2.38 2.72 0 0 Z " fill="#232323" transform="translate(199,141)"/>
<path d="M0 0 C0.33 0 0.66 0 1 0 C1 3.3 1 6.6 1 10 C-0.32 10.33 -1.64 10.66 -3 11 C-2.01 7.37 -1.02 3.74 0 0 Z " fill="#E0E0E0" transform="translate(219,126)"/>
<path d="M0 0 C0.99 1.32 1.98 2.64 3 4 C2.01 4.99 1.02 5.98 0 7 C-0.66 5.68 -1.32 4.36 -2 3 C-1.34 2.01 -0.68 1.02 0 0 Z " fill="#F3F3F3" transform="translate(196,138)"/>
<path d="M0 0 C2.88575819 0.39803561 3.82189513 0.79009069 5.75 3.0625 C6.1625 3.701875 6.575 4.34125 7 5 C3.47967572 5 2.5614657 4.29648649 0 2 C0 1.34 0 0.68 0 0 Z " fill="#E4E4E4" transform="translate(131,122)"/>
<path d="M0 0 C0.33 0.66 0.66 1.32 1 2 C1.66 2.33 2.32 2.66 3 3 C3.33 3.99 3.66 4.98 4 6 C3.01 6 2.02 6 1 6 C-0.6875 4 -0.6875 4 -2 2 C-1.34 1.34 -0.68 0.68 0 0 Z " fill="#E1E1E1" transform="translate(139,106)"/>
<path d="M0 0 C0.66 0.33 1.32 0.66 2 1 C1.60196439 3.88575819 1.20990931 4.82189513 -1.0625 6.75 C-1.701875 7.1625 -2.34125 7.575 -3 8 C-1.125 2.25 -1.125 2.25 0 0 Z " fill="#E5E5E5" transform="translate(18,101)"/>
<path d="M0 0 C2.62187494 1.04874998 3.79371361 1.64931313 5.25 4.125 C5.4975 4.74375 5.745 5.3625 6 6 C3.5625 5.25 3.5625 5.25 1 4 C0.1875 1.875 0.1875 1.875 0 0 Z " fill="#161616" transform="translate(168,67)"/>
<path d="M0 0 C0.33 0.66 0.66 1.32 1 2 C0.0625 4.125 0.0625 4.125 -1 6 C-1.66 6 -2.32 6 -3 6 C-3.33 6.99 -3.66 7.98 -4 9 C-4.33 8.34 -4.66 7.68 -5 7 C-3.35 4.69 -1.7 2.38 0 0 Z " fill="#E6E6E6" transform="translate(76,40)"/>
<path d="M0 0 C0.99 0.33 1.98 0.66 3 1 C2.67 1.66 2.34 2.32 2 3 C1.34 3 0.68 3 0 3 C-0.33 3.66 -0.66 4.32 -1 5 C-1.99 4.67 -2.98 4.34 -4 4 C-2.68 2.68 -1.36 1.36 0 0 Z " fill="#DADADA" transform="translate(81,34)"/>
<path d="M0 0 C0.66 0.33 1.32 0.66 2 1 C0.68 2.65 -0.64 4.3 -2 6 C-2.99 5.67 -3.98 5.34 -5 5 C-3.35 3.35 -1.7 1.7 0 0 Z " fill="#E7E7E7" transform="translate(89,28)"/>
</svg>
